<?xml version="1.0" encoding="iso-8859-1"?>
<svg version="1.1" id="cv_svg" xmlns="http://www.w3.org/2000/svg" x="0px" y="0px"
     viewBox="0 0 512 512">
<g>
	<g>
		<path d="M436,0H76C64.954,0,56,8.954,56,20v472c0,11.046,8.954,20,20,20h360c11.046,0,20-8.954,20-20V20
			C456,8.954,447.046,0,436,0z M416,472H96V40h320V472z"/>
	</g>
</g>
    <g>
	<g>
		<path d="M356,140H256c-11.046,0-20,8.954-20,20s8.954,20,20,20h100c11.046,0,20-8.954,20-20S367.046,140,356,140z"/>
	</g>
</g>
    <g>
	<g>
		<path d="M186,140h-30c-11.046,0-20,8.954-20,20s8.954,20,20,20h30c11.046,0,20-8.954,20-20S197.046,140,186,140z"/>
	</g>
</g>
    <g>
	<g>
		<path d="M356,236H256c-11.046,0-20,8.954-20,20c0,11.046,8.954,20,20,20h100c11.046,0,20-8.954,20-20S367.046,236,356,236z"/>
	</g>
</g>
    <g>
	<g>
		<path d="M186,236h-30c-11.046,0-20,8.954-20,20c0,11.046,8.954,20,20,20h30c11.046,0,20-8.954,20-20S197.046,236,186,236z"/>
	</g>
</g>
    <g>
	<g>
		<path d="M356,332H256c-11.046,0-20,8.954-20,20c0,11.046,8.954,20,20,20h100c11.046,0,20-8.954,20-20
			C376,340.954,367.046,332,356,332z"/>
	</g>
</g>
    <g>
	<g>
		<path d="M186,332h-30c-11.046,0-20,8.954-20,20c0,11.046,8.954,20,20,20h30c11.046,0,20-8.954,20-20
			C206,340.954,197.046,332,186,332z"/>
	</g>
</g>
    <g>
</g>
    <g>
</g>
    <g>
</g>
    <g>
</g>
    <g>
</g>
    <g>
</g>
    <g>
</g>
    <g>
</g>
    <g>
</g>
    <g>
</g>
    <g>
</g>
    <g>
</g>
    <g>
</g>
    <g>
</g>
    <g>
</g>
</svg>
