<?xml version="1.0" encoding="iso-8859-1"?>
<!-- Generator: Adobe Illustrator 19.0.0, SVG Export Plug-In . SVG Version: 6.00 Build 0)  -->
<svg version="1.1" id="Capa_1" xmlns="http://www.w3.org/2000/svg" xmlns:xlink="http://www.w3.org/1999/xlink" x="0px" y="0px"
	 viewBox="0 0 512 512" style="enable-background:new 0 0 512 512;" fill="#696969" xml:space="preserve">
<g>
	<g>
		<path d="M469.835,66.259H42.165C18.914,66.259,0,85.173,0,108.424v295.153c0,23.245,18.914,42.165,42.165,42.165h427.671
			c23.245,0,42.165-18.92,42.165-42.165V108.424C512,85.173,493.08,66.259,469.835,66.259z M475.859,403.576
			c0,3.265-2.759,6.024-6.023,6.024H42.165c-3.265,0-6.024-2.759-6.024-6.024V171.761l207.685,122.103
			c5.59,3.289,12.517,3.331,18.143,0.108l213.89-122.543V403.576z M475.859,129.777l-222.75,127.615L36.141,129.831v-21.408
			c0-3.265,2.759-6.023,6.024-6.023h427.671c3.265,0,6.023,2.759,6.023,6.023V129.777z"/>
	</g>
</g>
<g>
</g>
<g>
</g>
<g>
</g>
<g>
</g>
<g>
</g>
<g>
</g>
<g>
</g>
<g>
</g>
<g>
</g>
<g>
</g>
<g>
</g>
<g>
</g>
<g>
</g>
<g>
</g>
<g>
</g>
</svg>
