<?xml version="1.0" encoding="iso-8859-1"?>
<!-- Generator: Adobe Illustrator 19.0.0, SVG Export Plug-In . SVG Version: 6.00 Build 0)  -->
<svg version="1.1" id="quality_svg" xmlns="http://www.w3.org/2000/svg" x="0px" y="0px"
     viewBox="0 0 512 512">
<g>
	<g>
		<path d="M256,0C161.755,0,85.083,76.672,85.083,170.917c0,94.24,76.672,170.917,170.917,170.917
			c94.24,0,170.917-76.677,170.917-170.917C426.917,76.672,350.24,0,256,0z M256,308.211c-75.702,0-137.294-61.592-137.294-137.294
			S180.298,33.623,256,33.623c75.708,0,137.294,61.592,137.294,137.294S331.708,308.211,256,308.211z"/>
	</g>
</g>
    <g>
	<g>
		<path d="M375.339,488.509l-8.406-199.497l-33.589,1.412l7.33,173.887l-69.448-59.838c-8.68-8.109-21.776-8.12-30.462,0
			l-69.443,59.832l7.33-173.881l-33.595-1.412l-8.406,199.497c-0.006,0.235-0.011,0.471-0.011,0.706
			c0,8.904,5.172,17.036,13.18,20.712c8.047,3.71,17.293,2.382,24.13-3.497L256,435.737l82.074,70.72
			c4.259,3.648,9.465,5.537,14.732,5.537c3.172,0,6.36-0.678,9.375-2.068c8.002-3.676,13.175-11.807,13.175-20.712
			C375.356,488.979,375.351,488.744,375.339,488.509z"/>
	</g>
</g>
    <g>
	<g>
		<path d="M330.654,119.799c-6.568-6.568-17.204-6.568-23.771,0l-73.22,73.22l-34.066-34.48c-6.528-6.607-17.17-6.674-23.777-0.146
			c-6.607,6.528-6.674,17.17-0.146,23.777l45.951,46.512c3.149,3.189,7.431,4.987,11.908,4.999c0.017,0,0.034,0,0.05,0
			c4.455,0,8.736-1.771,11.891-4.931l85.178-85.178C337.222,137.008,337.222,126.361,330.654,119.799z"/>
	</g>
</g>
    <g>
</g>
    <g>
</g>
    <g>
</g>
    <g>
</g>
    <g>
</g>
    <g>
</g>
    <g>
</g>
    <g>
</g>
    <g>
</g>
    <g>
</g>
    <g>
</g>
    <g>
</g>
    <g>
</g>
    <g>
</g>
    <g>
</g>
</svg>
