<?xml version="1.0" encoding="iso-8859-1"?>
<!-- Generator: Adobe Illustrator 19.0.0, SVG Export Plug-In . SVG Version: 6.00 Build 0)  -->
<svg version="1.1" id="service_svg" xmlns="http://www.w3.org/2000/svg" x="0px" y="0px"
     viewBox="0 0 512 512">
<g>
	<g>
		<path d="M256.003,0C152.797,0,68.841,83.957,68.841,187.162v20.302h38.067v-20.302c0-82.212,66.884-149.095,149.095-149.095
			s149.095,66.884,149.095,149.095v20.302h38.067v-20.302C443.165,83.957,359.203,0,256.003,0z"/>
	</g>
</g>
    <g>
	<g>
		<path d="M114.521,188.431H67.572c-32.883,0-59.638,26.755-59.638,59.638v86.919c0,32.883,26.755,59.638,59.638,59.638h46.949
			c10.513,0,19.033-8.521,19.033-19.033V207.465C133.555,196.952,125.034,188.431,114.521,188.431z M95.488,356.56H67.572
			c-12.093,0-21.571-9.472-21.571-21.571v-86.919c0-12.093,9.479-21.571,21.571-21.571h27.916V356.56z"/>
	</g>
</g>
    <g>
	<g>
		<path d="M444.428,188.431h-46.943c-10.513,0-19.033,8.521-19.033,19.033v168.129c0,10.513,8.521,19.033,19.033,19.033h46.949
			c32.883,0,59.638-26.755,59.632-59.638v-86.919C504.066,215.186,477.318,188.431,444.428,188.431z M465.999,334.989
			c0,12.099-9.472,21.571-21.571,21.571h-27.909V226.498h27.909c12.099,0,21.571,9.479,21.571,21.571V334.989z"/>
	</g>
</g>
    <g>
	<g>
		<path d="M418.428,375.594c0,26.59-21.635,48.218-48.224,48.218h-50.756v38.067h50.756c47.577,0,86.285-38.708,86.291-86.285
			H418.428z"/>
	</g>
</g>
    <g>
	<g>
		<path d="M337.841,442.414c-0.235-37.927-31.17-68.717-69.155-68.717c-38.124,0-69.148,31.018-69.148,69.149
			S230.847,512,269.327,512c19.002,0,37.306-7.747,50.21-21.26C332.061,477.638,338.545,460.495,337.841,442.414z M292.027,464.429
			c-5.767,6.034-14.04,9.498-22.694,9.498c-17.194,0-31.722-14.237-31.722-31.088c0-17.136,13.939-31.082,31.082-31.082
			c17.143,0,31.088,13.952,31.094,31.075c0,0.292,0.006,0.577,0.019,0.869C300.154,451.448,297.395,458.814,292.027,464.429z"/>
	</g>
</g>
    <g>
</g>
    <g>
</g>
    <g>
</g>
    <g>
</g>
    <g>
</g>
    <g>
</g>
    <g>
</g>
    <g>
</g>
    <g>
</g>
    <g>
</g>
    <g>
</g>
    <g>
</g>
    <g>
</g>
    <g>
</g>
    <g>
</g>
</svg>
